<?xml version="1.0" standalone="no"?>
<!DOCTYPE svg PUBLIC "-//W3C//DTD SVG 20010904//EN"
 "http://www.w3.org/TR/2001/REC-SVG-20010904/DTD/svg10.dtd">
<svg version="1.0" xmlns="http://www.w3.org/2000/svg"
 width="2385.000000pt" height="2385.000000pt" viewBox="0 0 2385.000000 2385.000000"
 preserveAspectRatio="xMidYMid meet">
<metadata>
Created by potrace 1.14, written by Peter Selinger 2001-2017
</metadata>
<g transform="translate(0.000000,2385.000000) scale(0.100000,-0.100000)"
fill="#000000" stroke="none">
<path d="M11468 23845 c-1 -1 -73 -6 -158 -10 -85 -4 -170 -9 -189 -10 -18 -2
-76 -6 -130 -10 -53 -3 -112 -8 -131 -10 -19 -2 -60 -6 -90 -9 -189 -18 -219
-22 -370 -41 -19 -3 -55 -7 -80 -10 -25 -3 -56 -7 -70 -10 -14 -2 -45 -7 -70
-10 -25 -3 -85 -13 -135 -21 -49 -8 -103 -17 -120 -20 -16 -3 -66 -11 -110
-19 -44 -8 -93 -16 -110 -19 -36 -6 -48 -8 -250 -51 -88 -19 -191 -41 -230
-50 -38 -9 -77 -18 -85 -20 -8 -2 -44 -11 -80 -20 -36 -8 -72 -17 -81 -19 -59
-14 -278 -75 -404 -112 -82 -25 -154 -46 -160 -48 -162 -41 -859 -292 -1060
-381 -16 -7 -75 -32 -130 -55 -55 -23 -129 -55 -165 -72 -36 -16 -96 -44 -135
-61 -151 -68 -629 -312 -800 -408 -374 -210 -697 -412 -995 -621 -36 -25 -81
-56 -100 -69 -163 -113 -566 -422 -721 -554 -19 -16 -49 -41 -65 -55 -16 -14
-47 -40 -69 -58 -43 -37 -153 -133 -194 -170 -14 -13 -62 -56 -105 -95 -215
-194 -542 -521 -746 -746 -47 -51 -94 -103 -105 -115 -11 -12 -49 -55 -85 -96
-36 -41 -69 -80 -75 -86 -5 -6 -28 -33 -50 -60 -22 -27 -54 -64 -71 -84 -17
-19 -66 -80 -110 -135 -43 -55 -81 -102 -84 -105 -12 -11 -202 -262 -302 -400
-169 -233 -395 -578 -578 -880 -36 -60 -131 -226 -197 -345 -24 -44 -53 -96
-64 -115 -26 -47 -268 -531 -297 -595 -250 -545 -480 -1148 -608 -1590 -78
-273 -95 -332 -99 -350 -2 -11 -11 -45 -20 -75 -8 -30 -17 -66 -20 -80 -3 -14
-9 -41 -15 -60 -10 -36 -75 -314 -84 -360 -3 -14 -20 -101 -40 -195 -19 -93
-37 -188 -40 -210 -4 -23 -8 -52 -11 -65 -3 -13 -7 -42 -11 -64 -3 -22 -7 -43
-9 -46 -1 -3 -6 -30 -9 -61 -4 -31 -9 -67 -11 -80 -6 -25 -10 -53 -20 -134 -7
-58 -14 -100 -20 -135 -2 -14 -7 -52 -10 -85 -6 -58 -12 -113 -20 -185 -2 -19
-7 -64 -10 -100 -3 -36 -8 -81 -10 -100 -2 -19 -7 -80 -10 -135 -4 -55 -9
-113 -11 -130 -26 -219 -26 -1324 1 -1595 1 -19 6 -80 10 -135 3 -55 8 -118
10 -140 3 -22 9 -87 15 -145 11 -102 14 -136 26 -230 9 -75 15 -124 19 -150 2
-14 7 -47 10 -75 4 -27 8 -63 10 -80 3 -16 6 -39 8 -50 4 -19 13 -74 23 -140
2 -16 11 -66 19 -110 8 -44 17 -96 20 -115 3 -19 8 -48 12 -65 3 -16 7 -37 8
-45 1 -8 5 -28 9 -45 3 -16 8 -40 11 -53 2 -13 6 -31 9 -40 3 -9 8 -30 10 -47
3 -16 10 -52 16 -80 6 -27 13 -61 15 -75 4 -20 97 -395 119 -480 33 -126 129
-450 163 -550 8 -25 16 -52 18 -60 4 -15 110 -319 163 -465 31 -86 183 -464
212 -530 10 -22 48 -107 85 -190 87 -194 247 -521 334 -683 38 -70 83 -154
101 -187 65 -121 282 -488 355 -600 167 -259 306 -463 427 -630 32 -44 66 -91
76 -105 36 -50 266 -345 330 -423 37 -45 74 -91 83 -102 19 -23 279 -325 294
-341 5 -6 57 -62 115 -125 199 -217 623 -634 825 -812 213 -187 476 -407 576
-482 87 -65 225 -171 229 -176 3 -3 77 -57 165 -120 310 -224 778 -527 1010
-655 11 -6 72 -40 135 -76 164 -93 271 -149 470 -249 171 -86 427 -209 435
-209 2 0 36 -15 77 -34 40 -18 102 -46 138 -60 36 -15 79 -33 95 -41 51 -23
326 -132 456 -181 249 -93 853 -287 1029 -330 8 -2 104 -26 214 -54 109 -27
211 -52 226 -55 16 -3 66 -14 112 -25 46 -10 94 -21 108 -24 14 -2 70 -13 125
-24 193 -39 350 -67 490 -87 22 -4 51 -8 65 -10 14 -2 48 -7 75 -11 28 -3 57
-8 65 -9 32 -6 97 -15 145 -20 28 -3 64 -8 80 -10 41 -5 141 -16 195 -21 25
-2 70 -6 100 -9 131 -13 285 -26 365 -30 282 -15 444 -19 765 -19 434 0 689
10 1015 39 140 13 174 16 220 21 28 2 66 7 85 9 19 2 60 7 90 10 30 4 66 8 80
10 14 2 63 9 110 15 126 16 276 39 430 65 52 10 109 19 125 22 61 10 448 89
473 97 9 3 32 8 51 11 19 3 37 8 41 10 3 2 17 6 31 8 13 3 44 10 69 17 25 7
53 14 63 16 10 2 27 6 37 9 10 3 27 7 37 9 75 15 436 118 628 179 72 22 132
42 135 42 3 1 12 4 20 8 8 3 49 17 90 30 343 115 804 298 1145 455 155 72 660
326 663 334 2 5 7 8 12 8 7 0 64 31 212 114 626 351 1325 841 1877 1315 29 25
63 54 75 64 84 72 207 184 355 322 151 141 505 500 626 636 17 19 69 77 116
129 140 157 249 286 388 460 72 91 135 170 139 175 23 28 236 317 295 400 38
52 124 179 193 282 68 104 129 193 134 200 6 7 10 15 10 18 0 4 13 25 29 48
31 47 111 177 111 183 0 1 13 22 28 46 16 24 40 63 53 88 13 25 29 52 35 60 6
8 26 42 44 75 18 33 47 85 63 115 17 30 46 82 64 115 139 250 395 793 536
1135 53 131 195 500 201 525 2 6 6 17 9 25 33 79 192 585 234 740 66 248 138
534 158 630 2 8 11 51 20 95 20 96 20 94 44 220 26 129 30 153 37 195 2 19 8
49 11 65 3 17 7 39 9 50 1 11 7 52 14 90 17 109 18 117 25 165 3 25 8 56 10
70 7 48 14 105 30 240 4 30 8 66 10 80 3 23 19 183 30 305 2 28 7 88 10 135 3
47 8 110 10 140 25 335 25 1275 0 1490 -2 19 -7 83 -10 141 -3 59 -8 119 -10
135 -2 16 -6 63 -10 104 -12 142 -25 255 -55 490 -6 47 -13 96 -15 110 -3 14
-7 43 -10 65 -3 22 -8 51 -10 65 -3 14 -7 43 -11 65 -3 22 -13 87 -24 145 -18
105 -30 170 -30 180 -1 3 -5 23 -10 45 -6 22 -13 56 -16 75 -3 19 -9 51 -14
70 -5 19 -11 47 -14 62 -8 47 -65 289 -101 433 -19 77 -37 149 -40 160 -2 11
-32 114 -65 230 -169 583 -393 1180 -646 1720 -21 44 -38 82 -39 85 0 3 -46
96 -102 206 -91 183 -143 281 -209 402 -13 23 -36 63 -50 90 -15 26 -35 61
-45 77 -10 17 -24 42 -31 55 -12 21 -124 209 -193 323 -77 127 -274 424 -410
617 -126 180 -454 610 -495 650 -3 3 -25 30 -50 60 -25 30 -55 66 -66 80 -12
14 -41 48 -64 75 -65 76 -159 182 -220 249 -30 33 -84 91 -120 130 -100 110
-513 520 -630 626 -57 52 -120 110 -140 127 -44 40 -64 58 -220 191 -69 58
-133 113 -142 121 -9 9 -23 21 -30 26 -7 6 -67 53 -133 106 -240 192 -656 495
-814 594 -9 6 -50 32 -91 59 -41 27 -100 65 -130 84 -30 19 -71 45 -90 57 -63
41 -202 125 -205 125 -2 0 -39 22 -82 48 -80 49 -96 58 -373 209 -188 103
-568 290 -745 368 -71 31 -149 65 -171 75 -145 66 -411 171 -619 246 -82 30
-157 58 -165 61 -8 3 -17 7 -20 8 -3 0 -75 24 -160 52 -85 28 -202 65 -260 83
-58 17 -116 35 -130 40 -20 8 -164 47 -440 120 -49 13 -249 61 -274 66 -12 2
-30 6 -41 8 -11 3 -65 14 -120 26 -55 12 -108 23 -118 25 -9 2 -80 16 -157 30
-77 14 -148 28 -159 30 -17 3 -36 6 -126 21 -16 2 -43 6 -60 8 -16 3 -61 9
-100 16 -38 6 -81 13 -95 15 -22 3 -73 10 -235 30 -22 3 -62 8 -90 11 -27 2
-88 9 -135 14 -47 5 -116 12 -155 15 -38 3 -92 7 -120 10 -46 4 -140 10 -305
21 -78 5 -1087 14 -1092 9z"/>
</g>
</svg>
